<svg width="1280" height="320" viewBox="0 0 1280 320" xmlns="http://www.w3.org/2000/svg">
  <!-- Background -->
  <rect width="1280" height="320" fill="#1e1e1e"/>

  <!-- Subtle grid pattern -->
  <defs>
    <pattern id="grid" width="40" height="40" patternUnits="userSpaceOnUse">
      <path d="M 40 0 L 0 0 0 40" fill="none" stroke="#2d2d30" stroke-width="1"/>
    </pattern>

    <!-- Gradient for accent line -->
    <linearGradient id="gradient" x1="0%" y1="0%" x2="100%" y2="0%">
      <stop offset="0%" style="stop-color:#4fc1ff;stop-opacity:1" />
      <stop offset="50%" style="stop-color:#c792ea;stop-opacity:1" />
      <stop offset="100%" style="stop-color:#4ec9b0;stop-opacity:1" />
    </linearGradient>
  </defs>

  <rect width="1280" height="320" fill="url(#grid)"/>

  <!-- Logo (centered, scaled up) -->
  <g transform="translate(380, 80) scale(3.5)">
    <path
      style="font-style:oblique;font-weight:bold;font-size:25.4px;line-height:0;font-family:Galvji;fill:#d4d4d4"
      d="m 95.975748,147.69337 h 7.081742 c 0.82682,0 1.58336,0.12402 2.26963,0.37207 0.68626,0.24805 1.27744,0.59945 1.77353,1.0542 0.49609,0.44648 0.88057,0.97978 1.15342,1.5999 0.27285,0.62012 0.40928,1.30225 0.40928,2.04639 0,0.66145 -0.10335,1.29811 -0.31006,1.90996 -0.20671,0.61185 -0.50023,1.17822 -0.88057,1.69912 -0.38034,0.51263 -0.84749,0.96738 -1.40146,1.36426 -0.54571,0.39687 -1.15756,0.70693 -1.83555,0.93017 l 2.45566,6.92051 h -4.03076 l -2.1332,-6.48643 h -3.199806 l -1.389063,6.48643 h -3.770312 z m 1.934766,8.53281 h 3.274216 c 0.54571,0 1.0418,-0.0744 1.48828,-0.22324 0.45475,-0.1571 0.84336,-0.37207 1.16582,-0.64492 0.32247,-0.28112 0.57051,-0.61185 0.74414,-0.99219 0.17363,-0.38034 0.26045,-0.80202 0.26045,-1.26504 0,-0.76068 -0.23151,-1.34772 -0.69453,-1.76113 -0.46302,-0.41341 -1.11208,-0.62012 -1.94717,-0.62012 h -3.075776 z m 17.226856,6.8585 c 0.38034,0 0.74414,-0.0579 1.09141,-0.17364 0.35553,-0.11575 0.67386,-0.27285 0.95498,-0.47128 0.28112,-0.20671 0.51676,-0.44649 0.70693,-0.71934 0.19844,-0.28112 0.33487,-0.58704 0.40928,-0.91777 l 0.26045,-1.17823 -2.82774,0.0992 c -0.82682,0.0331 -1.47588,0.21083 -1.94717,0.5333 -0.46302,0.32246 -0.69453,0.75241 -0.69453,1.28985 0,0.22324 0.0496,0.42994 0.14883,0.62011 0.0992,0.19017 0.23978,0.35554 0.42168,0.4961 0.1819,0.13229 0.39687,0.23564 0.64492,0.31006 0.25631,0.0744 0.5333,0.11162 0.83096,0.11162 z m -1.52549,2.71611 c -0.57877,0 -1.11621,-0.0951 -1.6123,-0.28525 -0.49609,-0.19017 -0.92604,-0.45062 -1.28985,-0.78135 -0.3638,-0.33073 -0.64905,-0.72347 -0.85576,-1.17822 -0.20671,-0.45475 -0.31006,-0.95085 -0.31006,-1.48829 0,-0.69453 0.13643,-1.31878 0.40928,-1.87275 0.28112,-0.55397 0.68213,-1.0294 1.20303,-1.42627 0.52089,-0.39687 1.15755,-0.70693 1.90996,-0.93017 0.75241,-0.22325 1.60817,-0.35141 2.56728,-0.38448 l 3.39824,-0.11162 0.18604,-0.84336 c 0.0248,-0.12402 0.0413,-0.2191 0.0496,-0.28525 0.008,-0.0744 0.0124,-0.14469 0.0124,-0.21084 0,-0.47129 -0.20257,-0.84336 -0.60771,-1.11621 -0.39688,-0.28112 -0.94672,-0.42168 -1.64951,-0.42168 -0.59531,0 -1.09554,0.10335 -1.50069,0.31006 -0.40514,0.20671 -0.69866,0.5085 -0.88056,0.90537 h -3.41065 c 0.14883,-0.62012 0.40101,-1.18236 0.75654,-1.68672 0.35553,-0.50436 0.79375,-0.93017 1.31465,-1.27744 0.52917,-0.35553 1.12861,-0.62839 1.79834,-0.81856 0.67799,-0.19017 1.4056,-0.28525 2.18281,-0.28525 0.83509,0 1.59164,0.0992 2.26963,0.29766 0.68627,0.19017 1.27331,0.46302 1.76114,0.81855 0.48782,0.34727 0.86402,0.76895 1.12861,1.26504 0.26458,0.49609 0.39687,1.04593 0.39687,1.64951 0,0.17363 -0.008,0.35967 -0.0248,0.55811 -0.0165,0.19843 -0.0455,0.38033 -0.0868,0.5457 l -1.87275,8.84287 H 117.345 l 0.35966,-1.68672 h -0.22324 c -0.19843,0.28939 -0.43821,0.55397 -0.71933,0.79375 -0.27285,0.23151 -0.57878,0.42995 -0.91778,0.59531 -0.33073,0.16537 -0.68626,0.28939 -1.0666,0.37207 -0.38034,0.091 -0.76895,0.13643 -1.16582,0.13643 z m 13.54336,-13.89062 h 3.50986 l -0.48369,2.25722 h 0.22324 c 0.20671,-0.37207 0.45062,-0.71106 0.73174,-1.01699 0.28112,-0.30593 0.58705,-0.56638 0.91778,-0.78135 0.33899,-0.21497 0.69866,-0.38034 1.079,-0.49609 0.38034,-0.12403 0.77308,-0.18604 1.17822,-0.18604 0.47956,0 0.91364,0.0703 1.30225,0.21084 0.38861,0.13229 0.73174,0.3142 1.02939,0.54571 0.29766,0.23151 0.54571,0.50022 0.74414,0.80615 0.19844,0.29765 0.34314,0.60771 0.43409,0.93017 h 0.22324 c 0.47955,-0.75241 1.079,-1.35599 1.79834,-1.81074 0.71933,-0.45475 1.5875,-0.68213 2.60449,-0.68213 0.55397,0 1.0666,0.0992 1.53789,0.29766 0.47129,0.19017 0.8723,0.45888 1.20303,0.80615 0.33899,0.339 0.60358,0.74414 0.79375,1.21543 0.19017,0.46302 0.28525,0.96738 0.28525,1.51309 0,0.24805 -0.0165,0.5085 -0.0496,0.78135 -0.0248,0.27285 -0.0661,0.55396 -0.12402,0.84335 l -1.78594,8.446 h -3.60908 l 1.66191,-7.88789 c 0.0827,-0.38034 0.12403,-0.72761 0.12403,-1.0418 0,-0.28112 -0.0455,-0.53743 -0.13643,-0.76894 -0.0827,-0.23978 -0.21084,-0.44649 -0.38447,-0.62012 -0.16537,-0.17363 -0.36794,-0.30592 -0.60772,-0.39687 -0.23151,-0.0992 -0.49609,-0.14883 -0.79375,-0.14883 -0.32246,0 -0.63252,0.062 -0.93017,0.18603 -0.28939,0.11576 -0.5581,0.28939 -0.80615,0.5209 -0.24805,0.23151 -0.46302,0.51263 -0.64493,0.84336 -0.1819,0.32246 -0.31832,0.6904 -0.40927,1.10381 l -1.73633,8.21035 h -3.49746 l 1.67431,-7.88789 c 0.0413,-0.19844 0.0703,-0.38034 0.0868,-0.5457 0.0248,-0.16537 0.0372,-0.33073 0.0372,-0.4961 0,-0.28112 -0.0455,-0.53743 -0.13643,-0.76894 -0.0827,-0.23978 -0.21084,-0.44649 -0.38447,-0.62012 -0.16537,-0.17363 -0.36794,-0.30592 -0.60772,-0.39687 -0.23151,-0.0992 -0.49609,-0.14883 -0.79375,-0.14883 -0.32246,0 -0.63252,0.062 -0.93017,0.18603 -0.29766,0.11576 -0.57051,0.28939 -0.81856,0.5209 -0.24805,0.22324 -0.46302,0.49609 -0.64492,0.81856 -0.17363,0.31419 -0.30179,0.66972 -0.38447,1.0666 l -1.76113,8.27236 h -3.62149 z m 28.14092,10.82724 c 0.53743,0 1.04179,-0.13229 1.51308,-0.39687 0.47129,-0.26459 0.88057,-0.62839 1.22783,-1.09141 0.34727,-0.46302 0.62012,-1.00872 0.81856,-1.63711 0.19844,-0.63665 0.29766,-1.32705 0.29766,-2.07119 0,-0.47129 -0.062,-0.8847 -0.18604,-1.24023 -0.12403,-0.35554 -0.29766,-0.6532 -0.5209,-0.89297 -0.22324,-0.23978 -0.49196,-0.42168 -0.80615,-0.54571 -0.31419,-0.12402 -0.66146,-0.18603 -1.0418,-0.18603 -0.5457,0 -1.05833,0.13643 -1.53789,0.40928 -0.47129,0.27285 -0.8847,0.64492 -1.24023,1.11621 -0.34727,0.46302 -0.62425,1.00872 -0.83096,1.63711 -0.20671,0.62011 -0.31006,1.28157 -0.31006,1.98437 0,0.47129 0.062,0.88883 0.18604,1.25264 0.13229,0.35553 0.31419,0.65732 0.5457,0.90537 0.23151,0.24805 0.5085,0.43822 0.83096,0.57051 0.32246,0.12402 0.67386,0.18603 1.0542,0.18603 z m -8.50801,7.3918 3.88193,-18.21904 h 3.50987 l -0.40928,1.89755 h 0.22324 c 0.47129,-0.64492 1.06247,-1.15755 1.77354,-1.53789 0.71107,-0.38861 1.52549,-0.58291 2.44326,-0.58291 0.68626,0 1.31464,0.12402 1.88515,0.37207 0.57878,0.24805 1.07487,0.59945 1.48828,1.0542 0.41341,0.45475 0.73588,1.00459 0.96739,1.64951 0.23151,0.64493 0.34726,1.36426 0.34726,2.15801 0,1.28158 -0.17777,2.46394 -0.5333,3.54707 -0.34727,1.08314 -0.83096,2.02158 -1.45107,2.81533 -0.61185,0.78549 -1.33946,1.40147 -2.18281,1.84795 -0.83509,0.44649 -1.73633,0.66973 -2.70372,0.66973 -0.49609,0 -0.95911,-0.0661 -1.38906,-0.19844 -0.42168,-0.13229 -0.79788,-0.31419 -1.12861,-0.5457 -0.33073,-0.23978 -0.61599,-0.52503 -0.85576,-0.85576 -0.23151,-0.33073 -0.40101,-0.69454 -0.5085,-1.09141 h -0.22324 l -1.51309,7.01973 z m 20.53828,-18.21904 h 3.60908 l -2.90215,13.67978 h -3.60908 z m 2.61689,-1.90997 c -0.32246,0 -0.61598,-0.0455 -0.88056,-0.13642 -0.26459,-0.0909 -0.49196,-0.21498 -0.68213,-0.37207 -0.1819,-0.1571 -0.32246,-0.34314 -0.42168,-0.55811 -0.0992,-0.22324 -0.14883,-0.45888 -0.14883,-0.70693 0,-0.26459 0.0496,-0.5085 0.14883,-0.73174 0.0992,-0.23151 0.23978,-0.42994 0.42168,-0.59531 0.19017,-0.17363 0.41754,-0.30593 0.68213,-0.39688 0.26458,-0.0992 0.5581,-0.14882 0.88056,-0.14882 0.32247,0 0.61599,0.0455 0.88057,0.13642 0.26459,0.0909 0.48783,0.21498 0.66973,0.37207 0.19017,0.1571 0.33486,0.34314 0.43408,0.55811 0.0992,0.21497 0.14883,0.44648 0.14883,0.69453 0,0.26458 -0.0496,0.51263 -0.14883,0.74414 -0.0992,0.22324 -0.24391,0.42168 -0.43408,0.59531 -0.1819,0.16537 -0.40514,0.29766 -0.66973,0.39688 -0.26458,0.0992 -0.5581,0.14882 -0.88057,0.14882 z m 5.10977,4.88653 h -2.23242 l 0.58291,-2.84014 h 2.19521 l 0.31006,-1.56269 c 0.25631,-1.29811 0.79375,-2.23656 1.6123,-2.81534 0.81856,-0.57877 1.94717,-0.86816 3.38584,-0.86816 0.48783,0 0.93431,0.0331 1.33946,0.0992 0.40514,0.0579 0.71933,0.11988 0.94257,0.18603 l -0.5333,2.53008 c -0.13229,-0.0413 -0.31419,-0.0744 -0.5457,-0.0992 -0.22324,-0.0248 -0.50849,-0.0372 -0.85576,-0.0372 -0.49609,0 -0.90124,0.11989 -1.21543,0.35966 -0.30593,0.23978 -0.51263,0.60772 -0.62012,1.10381 l -0.22324,1.10381 h 2.90215 l -0.58291,2.84014 h -2.82774 l -2.28203,10.70322 h -3.63388 z m 7.81348,15.70137 c -0.0744,0 -0.19844,-0.004 -0.37207,-0.0124 -0.17363,-0.008 -0.3514,-0.0165 -0.5333,-0.0248 -0.18191,-0.008 -0.34727,-0.0165 -0.4961,-0.0248 -0.14883,-0.008 -0.23978,-0.0165 -0.27285,-0.0248 0.74137,-1.28136 -0.47076,-2.81535 1.61231,-2.81535 0.60358,0 1.12448,-0.11576 1.56269,-0.34727 0.43822,-0.23151 0.78962,-0.62011 1.0542,-1.16582 l 0.27285,-0.5457 -1.78594,-13.71699 h 3.6835 l 0.79375,10.19472 h 0.22324 l 5.02295,-10.19472 h 3.86953 l -7.81347,14.17587 c -0.44649,0.83509 -0.90537,1.53789 -1.37666,2.1084 -0.46303,0.57878 -0.96739,1.04594 -1.51309,1.40147 -0.5457,0.35553 -1.14101,0.60771 -1.78594,0.75654 -0.64492,0.1571 -1.36012,0.23565 -2.1456,0.23565 z"
      transform="translate(-92.168229, -146.353979)" />
    <path
      style="fill:#0e639c"
      d="m 183.26019,167.66383 -0.23939,2.92428 H 92.168229 Z"
      transform="translate(-92.168229, -146.353979)" />
  </g>

  <!-- Tagline -->
  <text x="640" y="220" font-family="monospace" font-size="20" fill="#9d9d9d" text-anchor="middle">
    SEO intelligence for developers
  </text>

  <!-- Accent line at bottom -->
  <rect x="0" y="310" width="1280" height="4" fill="url(#gradient)"/>

  <!-- Decorative corner elements -->
  <circle cx="60" cy="60" r="3" fill="#4fc1ff" opacity="0.6"/>
  <circle cx="1220" cy="60" r="3" fill="#c792ea" opacity="0.6"/>
  <circle cx="60" cy="260" r="3" fill="#4ec9b0" opacity="0.6"/>
  <circle cx="1220" cy="260" r="3" fill="#4fc1ff" opacity="0.6"/>
</svg>
